<?xml version="1.0" encoding="UTF-8"?>
<svg id="Calque_1" xmlns="http://www.w3.org/2000/svg" version="1.1" viewBox="0 0 118 36">
  <!-- Generator: Adobe Illustrator 29.0.0, SVG Export Plug-In . SVG Version: 2.1.0 Build 186)  -->
  <circle cx="29.32" cy="17.2" r="14.33" fill="#312783"/>
  <path d="M20.36,21.37c.02.39.09.78.22,1.15.12.37.32.7.59.98.27.28.62.51,1.06.68.44.17.99.25,1.65.25.77,0,1.4-.1,1.9-.31.5-.21.9-.48,1.19-.83s.5-.74.62-1.18c.12-.44.18-.9.18-1.36v-6.85c0-.52-.17-.89-.5-1.11-.33-.22-1.01-.34-2.02-.34v-5.33h13.34v5.33c-.84,0-1.44.11-1.8.34-.36.23-.54.65-.54,1.29v6.65c0,.82-.13,1.71-.39,2.67s-.73,1.84-1.41,2.64c-.68.8-1.62,1.48-2.82,2.02s-2.73.81-4.61.81c-1.77,0-3.22-.24-4.34-.73-1.12-.49-2-1.09-2.63-1.81-.63-.72-1.06-1.47-1.3-2.27-.24-.79-.36-1.48-.36-2.07,0-.84.12-1.59.37-2.24.25-.65.57-1.19.96-1.62.39-.43.85-.75,1.36-.97.52-.22,1.06-.32,1.62-.32.67,0,1.24.1,1.71.29.47.2.86.46,1.16.78s.53.69.67,1.11c.14.41.21.83.21,1.26,0,.47-.08.9-.24,1.29-.16.39-.37.73-.63,1.01-.26.28-.58.51-.96.68-.37.17-.77.25-1.18.25-.5,0-.92-.06-1.26-.19-.34-.12-.63-.29-.86-.5-.23-.21-.43-.44-.59-.7-.16-.26-.28-.51-.38-.76Z" fill="#fff"/>
  <g>
    <path d="M51.02,19.32c.01.21.05.42.12.62.07.2.17.38.32.54.15.15.34.28.58.37.24.09.54.14.9.14.42,0,.76-.06,1.03-.17.27-.11.49-.26.65-.45.16-.19.27-.4.34-.64.06-.24.1-.49.1-.74v-3.72c0-.28-.09-.48-.27-.6-.18-.12-.55-.18-1.1-.18v-2.9h7.25v2.9c-.46,0-.79.06-.98.18-.2.12-.29.35-.29.7v3.61c0,.45-.07.93-.21,1.45-.14.52-.4,1-.77,1.44s-.88.8-1.53,1.1c-.65.29-1.49.44-2.51.44-.96,0-1.75-.13-2.36-.4-.61-.27-1.09-.59-1.43-.98s-.58-.8-.71-1.23c-.13-.43-.2-.81-.2-1.12,0-.46.07-.86.2-1.22.14-.35.31-.65.52-.88s.46-.41.74-.53c.28-.12.57-.18.88-.18.36,0,.67.05.93.16.25.11.47.25.63.43.17.18.29.38.36.6.08.22.11.45.11.69,0,.25-.04.49-.13.7s-.2.4-.34.55c-.14.15-.32.28-.52.37-.2.09-.42.14-.64.14-.27,0-.5-.03-.68-.1-.19-.07-.34-.16-.47-.27-.13-.11-.23-.24-.32-.38-.09-.14-.15-.28-.21-.41Z" fill="#fff"/>
    <path d="M66.02,19.25c.02.78.17,1.31.44,1.6s.67.44,1.17.44c.17,0,.34-.02.5-.07.16-.05.32-.13.46-.24.14-.11.26-.26.36-.45s.17-.42.2-.7h2.84c-.1.67-.29,1.23-.57,1.69-.28.45-.64.82-1.07,1.1-.44.28-.95.48-1.53.6s-1.23.18-1.94.18-1.42-.09-2.07-.28c-.64-.19-1.21-.47-1.7-.85-.49-.38-.87-.86-1.14-1.44-.28-.58-.41-1.27-.41-2.07s.13-1.44.39-2.01c.26-.58.62-1.06,1.1-1.45.47-.39,1.03-.68,1.67-.88.64-.2,1.35-.3,2.12-.3.95,0,1.76.12,2.44.38.68.25,1.24.6,1.67,1.05.43.45.75.99.95,1.62.2.63.3,1.33.29,2.1h-6.17ZM67.18,16.23c-.36,0-.63.13-.81.39-.17.26-.29.68-.35,1.28h2.29c-.03-.51-.14-.91-.33-1.21-.19-.3-.46-.45-.8-.45Z" fill="#fff"/>
    <path d="M82.03,17.32h-2.15c-.15-.37-.38-.67-.7-.89-.32-.22-.65-.33-.99-.33-.23,0-.42.04-.56.13s-.21.21-.21.39c0,.21.12.37.36.48.24.11.54.2.9.28.36.08.75.18,1.17.3s.81.28,1.17.5.66.51.9.88.36.86.36,1.46c0,.47-.1.88-.31,1.23s-.49.63-.85.86c-.36.22-.79.39-1.28.5s-1.02.17-1.58.17-1.07-.05-1.56-.16c-.49-.11-.96-.29-1.41-.54l-.08.54h-2.06v-3.13h2.14c.2.42.46.74.77.97.31.23.65.34,1.03.34.29,0,.49-.05.61-.16.12-.11.18-.23.18-.36,0-.21-.12-.38-.36-.5s-.54-.22-.89-.31c-.35-.09-.74-.19-1.16-.3-.42-.11-.81-.27-1.16-.49-.35-.21-.65-.5-.89-.86s-.36-.84-.36-1.42c0-.42.09-.81.28-1.16.19-.35.46-.64.82-.88.35-.24.77-.42,1.25-.55.48-.13,1-.19,1.58-.19.64,0,1.22.07,1.73.21s.9.3,1.15.47l.08-.55h2.07v3.07Z" fill="#fff"/>
    <path d="M92.22,17.32h-2.15c-.15-.37-.38-.67-.7-.89-.32-.22-.65-.33-.99-.33-.23,0-.42.04-.56.13s-.21.21-.21.39c0,.21.12.37.36.48.24.11.54.2.9.28.36.08.75.18,1.17.3s.81.28,1.17.5.66.51.9.88.36.86.36,1.46c0,.47-.1.88-.31,1.23s-.49.63-.85.86c-.36.22-.79.39-1.28.5s-1.02.17-1.58.17-1.07-.05-1.56-.16c-.49-.11-.96-.29-1.41-.54l-.08.54h-2.06v-3.13h2.14c.2.42.46.74.77.97.31.23.65.34,1.03.34.29,0,.49-.05.61-.16.12-.11.18-.23.18-.36,0-.21-.12-.38-.36-.5s-.54-.22-.89-.31c-.35-.09-.74-.19-1.16-.3-.42-.11-.81-.27-1.16-.49-.35-.21-.65-.5-.89-.86s-.36-.84-.36-1.42c0-.42.09-.81.28-1.16.19-.35.46-.64.82-.88.35-.24.77-.42,1.25-.55.48-.13,1-.19,1.58-.19.64,0,1.22.07,1.73.21s.9.3,1.15.47l.08-.55h2.07v3.07Z" fill="#fff"/>
    <path d="M100.34,23.71c-.18.39-.36.8-.55,1.23-.19.44-.43.84-.74,1.21-.3.37-.7.68-1.17.92-.48.24-1.1.37-1.87.37-.54,0-1.01-.07-1.42-.21-.41-.14-.74-.32-1.01-.56-.26-.23-.46-.5-.59-.81-.13-.3-.19-.62-.19-.93,0-.63.19-1.12.58-1.49.39-.36.87-.54,1.45-.54.34,0,.62.05.85.15.23.1.42.23.56.38s.25.33.3.51.09.36.09.53c0,.38-.09.66-.28.86-.18.2-.41.32-.67.38.02.02.05.04.1.05.06.03.19.05.38.05s.34-.05.49-.14c.14-.09.27-.2.39-.34s.22-.28.3-.43c.09-.15.16-.3.21-.43l.02-.05-3.33-6.41c-.05-.12-.11-.22-.17-.3-.06-.08-.13-.15-.22-.21s-.19-.09-.32-.12c-.13-.03-.29-.04-.48-.04v-2.9h6.27v2.9c-.33,0-.54.05-.64.14s-.11.25-.03.45l.95,2.01.91-2.01c.08-.18.07-.33-.03-.43-.1-.11-.32-.16-.64-.16v-2.9h4.35v2.9c-.39,0-.65.05-.81.16-.15.11-.29.28-.39.51l-2.65,5.67Z" fill="#fff"/>
  </g>
</svg>